<svg t="1649042554130" class="icon" viewBox="0 0 1024 1024" version="1.1" xmlns="http://www.w3.org/2000/svg" p-id="4841" width="200" height="200"><path d="M903.529412 90.352941H120.470588c-16.564706 0-30.117647 13.552941-30.117647 30.117647v783.058824c0 16.564706 13.552941 30.117647 30.117647 30.117647h783.058824c16.564706 0 30.117647-13.552941 30.117647-30.117647V120.470588c0-16.564706-13.552941-30.117647-30.117647-30.117647z m-30.117647 60.235294v60.235294H490.917647c-12.047059 0-23.491765 3.614118-33.430588 10.24L382.494118 271.058824H150.588235V150.588235h722.82353zM150.588235 873.411765V331.294118h231.905883c12.047059 0 23.491765-3.614118 33.430588-10.24L490.917647 271.058824H873.411765v602.352941H150.588235z" fill="#1e1e1e" p-id="4842"></path><path d="M225.882353 240.941176c-2.108235 0-3.915294-0.301176-6.023529-0.602352a19.154824 19.154824 0 0 1-5.421177-1.807059c-3.614118-1.505882-7.228235-3.614118-9.938823-6.324706-5.421176-5.722353-8.734118-13.552941-8.734118-21.38353 0-1.807059 0.301176-3.915294 0.602353-5.722353 0.301176-2.108235 0.903529-3.915294 1.807059-5.722352 0.602353-1.807059 1.505882-3.614118 2.710588-5.421177 0.903529-1.505882 2.409412-3.011765 3.614118-4.517647 1.505882-1.204706 3.011765-2.710588 4.517647-3.614118 1.807059-1.204706 3.614118-2.108235 5.421176-2.710588 1.807059-0.903529 3.614118-1.505882 5.421177-1.807059 9.637647-2.108235 20.178824 1.204706 27.407058 8.131765 5.421176 5.722353 8.734118 13.552941 8.734118 21.383529 0 3.915294-0.903529 7.830588-2.409412 11.444706-1.505882 3.915294-3.614118 7.228235-6.324706 9.938824-5.722353 5.421176-13.552941 8.734118-21.383529 8.734117zM316.235294 240.941176c-3.915294 0-7.830588-0.903529-11.444706-2.409411-3.915294-1.505882-6.927059-3.614118-9.938823-6.324706a28.099765 28.099765 0 0 1-6.324706-9.938824A29.967059 29.967059 0 0 1 286.117647 210.823529c0-8.131765 3.312941-15.661176 8.734118-21.383529 3.011765-2.710588 6.023529-4.818824 9.938823-6.324706 5.421176-2.409412 11.444706-3.011765 17.468236-1.807059 1.807059 0.301176 3.614118 0.903529 5.421176 1.807059 1.807059 0.602353 3.614118 1.505882 5.12 2.710588 1.807059 1.204706 3.312941 2.409412 4.818824 3.614118 1.204706 1.505882 2.409412 3.011765 3.614117 4.818824 1.204706 1.505882 2.108235 3.312941 2.710588 5.12 0.903529 1.807059 1.505882 3.614118 1.807059 5.722352 0.301176 1.807059 0.602353 3.915294 0.602353 5.722353 0 7.830588-3.312941 15.661176-8.734117 21.38353-3.011765 2.710588-6.324706 4.818824-9.938824 6.324706-1.807059 0.903529-3.614118 1.505882-5.421176 1.807059-2.108235 0.301176-3.915294 0.602353-6.02353 0.602352zM512 843.294118c-16.564706 0-30.117647-13.552941-30.117647-30.117647v-271.058824c0-16.564706 13.552941-30.117647 30.117647-30.117647s30.117647 13.552941 30.117647 30.117647v271.058824c0 16.564706-13.552941 30.117647-30.117647 30.117647zM391.529412 843.294118c-16.564706 0-30.117647-13.552941-30.117647-30.117647v-150.588236c0-16.564706 13.552941-30.117647 30.117647-30.117647s30.117647 13.552941 30.117647 30.117647v150.588236c0 16.564706-13.552941 30.117647-30.117647 30.117647zM271.058824 843.294118c-16.564706 0-30.117647-13.552941-30.117648-30.117647v-210.82353c0-16.564706 13.552941-30.117647 30.117648-30.117647s30.117647 13.552941 30.117647 30.117647v210.82353c0 16.564706-13.552941 30.117647-30.117647 30.117647zM632.470588 843.294118c-16.564706 0-30.117647-13.552941-30.117647-30.117647v-120.470589c0-16.564706 13.552941-30.117647 30.117647-30.117647s30.117647 13.552941 30.117647 30.117647v120.470589c0 16.564706-13.552941 30.117647-30.117647 30.117647z" fill="#1e1e1e" p-id="4843"></path><path d="M752.941176 843.294118c-16.564706 0-30.117647-13.552941-30.117647-30.117647v-240.941177c0-16.564706 13.552941-30.117647 30.117647-30.117647s30.117647 13.552941 30.117648 30.117647v240.941177c0 16.564706-13.552941 30.117647-30.117648 30.117647z" fill="#1e1e1e" p-id="4844"></path><path d="M391.529412 572.235294c-4.517647 0-9.035294-0.903529-13.552941-3.312941l-120.470589-60.235294a30.418824 30.418824 0 0 1-13.552941-40.357647c7.529412-14.757647 25.6-20.781176 40.357647-13.552941l96.677647 48.489411 105.712941-158.72c5.421176-7.830588 14.155294-12.950588 23.491765-13.251764 9.938824-0.301176 18.672941 3.614118 24.696471 11.143529l111.435294 136.734118 85.534118-79.811765a29.997176 29.997176 0 1 1 40.96 43.971765l-109.327059 101.49647c-6.023529 5.722353-14.155294 8.432941-22.588236 8.131765a30.057412 30.057412 0 0 1-21.383529-11.143529l-106.014118-130.108236-97.882353 146.672941c-4.818824 9.035294-14.456471 13.854118-24.094117 13.854118z" fill="#1e1e1e" p-id="4845"></path></svg>